<svg xmlns="http://www.w3.org/2000/svg" width="1024" height="1536" viewBox="0 0 1024 1536">
  <defs>
    <clipPath id="head_clip">
      <path d="M512 156 C600 156 656 220 660 316 C663 380 656 424 644 456 C634 484 604 508 570 518 C552 524 528 526 512 526 C496 526 472 524 454 518 C420 508 390 484 380 456 C368 424 361 380 364 316 C368 220 424 156 512 156 Z"/>
    </clipPath>
    <clipPath id="coat_clip">
      <path d="M404 622 C338 632 284 656 254 694 C226 734 212 802 210 874 C208 966 220 1068 234 1150 C246 1222 250 1310 246 1410 L242 1536 L782 1536 L778 1410 C774 1310 778 1222 790 1150 C804 1068 816 966 814 874 C812 802 798 734 770 694 C740 656 686 632 620 622 Z"/>
    </clipPath>
  </defs>

  <!-- ================= NECK ================= -->
  <g id="neck">
    <path d="M450 452 L450 600 C450 632 474 648 512 648 C550 648 574 632 574 600 L574 452 Z" fill="#C8996C"/>
    <path d="M450 452 L450 556 C466 586 494 600 512 600 C530 600 558 586 574 556 L574 452 Z" fill="#7A5330" opacity="0.44"/>
    <path d="M450 478 C452 544 468 578 496 594 L450 594 Z" fill="#6B4526" opacity="0.26"/>
  </g>

  <!-- ================= COAT BODY ================= -->
  <g id="coat">
    <path d="M404 622 C338 632 284 656 254 694 C226 734 212 802 210 874 C208 966 220 1068 234 1150 C246 1222 250 1310 246 1410 L242 1536 L782 1536 L778 1410 C774 1310 778 1222 790 1150 C804 1068 816 966 814 874 C812 802 798 734 770 694 C740 656 686 632 620 622 Z" fill="#241A16"/>
    <g clip-path="url(#coat_clip)">
      <path d="M766 650 C808 738 822 902 808 1086 C798 1238 796 1400 802 1560 L920 1560 L920 610 Z" fill="#120C0A" opacity="0.42"/>
      <path d="M292 654 C256 714 238 822 238 926 L176 926 L176 630 Z" fill="#5C4436" opacity="0.26"/>
      <path d="M338 1146 C332 1262 324 1400 318 1536 L706 1536 C700 1400 692 1262 686 1146 C616 1180 408 1180 338 1146 Z" fill="#1C1512"/>
      <path d="M512 1174 L520 1174 L516 1536 L508 1536 Z" fill="#4A3A30" opacity="0.28"/>
      <path d="M382 1204 C376 1302 372 1420 370 1536" fill="none" stroke="#4A3A30" stroke-width="5" opacity="0.20"/>
      <path d="M338 1146 C332 1262 324 1400 318 1536" fill="none" stroke="#4A3A30" stroke-width="6" opacity="0.38"/>
      <path d="M686 1146 C692 1262 700 1400 706 1536" fill="none" stroke="#120C0A" stroke-width="6" opacity="0.55"/>
    </g>
    <path d="M254 694 C226 734 212 802 210 874 C208 966 220 1068 234 1150" fill="none" stroke="#5C4436" stroke-width="5" opacity="0.28"/>
  </g>

  <!-- ================= SHIRT FRONT ================= -->
  <g id="shirt">
    <path d="M420 618 C480 610 544 610 604 618 C592 784 576 934 558 1076 L466 1076 C448 934 432 784 420 618 Z" fill="#EDE3D3"/>
    <path d="M512 614 C548 610 578 612 604 618 C592 784 576 934 558 1076 L512 1076 Z" fill="#CBBCA6" opacity="0.50"/>
    <path d="M507 648 L517 648 L513 1076 L507 1076 Z" fill="#A89A88" opacity="0.38"/>
  </g>

  <!-- ================= WAISTCOAT ================= -->
  <g id="waistcoat">
    <path d="M436 726 C462 804 490 858 512 900 C534 858 562 804 588 726 C598 832 580 970 564 1084 L460 1084 C444 970 426 832 436 726 Z" fill="#3B241A"/>
    <path d="M512 900 C534 858 562 804 588 726 C598 832 580 970 564 1084 L512 1084 Z" fill="#2A1710" opacity="0.62"/>
    <path d="M436 726 C452 778 468 820 484 854" fill="none" stroke="#54341F" stroke-width="5" opacity="0.55"/>
    <circle cx="512" cy="956" r="11" fill="#A87B4A"/>
    <circle cx="512" cy="956" r="4.5" fill="#6E4E2C"/>
    <circle cx="512" cy="1010" r="11" fill="#A87B4A"/>
    <circle cx="512" cy="1010" r="4.5" fill="#6E4E2C"/>
    <circle cx="512" cy="1064" r="11" fill="#A87B4A"/>
    <circle cx="512" cy="1064" r="4.5" fill="#6E4E2C"/>
  </g>

  <!-- ================= LAPELS ================= -->
  <g id="lapels">
    <path d="M424 614 C382 622 340 640 300 666 L266 700 C286 718 306 742 324 774 C354 828 380 908 398 990 C406 1026 414 1060 420 1090 L474 1070 C462 980 448 882 440 794 C432 712 428 658 424 614 Z" fill="#33261F"/>
    <path d="M600 614 C642 622 684 640 724 666 L758 700 C738 718 718 742 700 774 C670 828 644 908 626 990 C618 1026 610 1060 604 1090 L550 1070 C562 980 576 882 584 794 C592 712 596 658 600 614 Z" fill="#33261F"/>
    <path d="M424 614 C396 620 366 632 340 648 C360 706 382 808 396 908 C406 978 414 1040 420 1090 L444 1082 C434 970 426 804 424 614 Z" fill="#5C4436" opacity="0.30"/>
    <path d="M600 614 C628 620 658 632 684 648 C664 706 642 808 628 908 C618 978 610 1040 604 1090 L580 1082 C590 970 598 804 600 614 Z" fill="#120C0A" opacity="0.45"/>
    <path d="M300 666 L266 700 C286 718 306 742 324 774" fill="none" stroke="#5C4436" stroke-width="4" opacity="0.32"/>
  </g>

  <!-- ================= WING COLLAR ================= -->
  <g id="collar">
    <path d="M416 604 C452 580 484 572 512 572 C540 572 574 580 610 604 L616 656 C574 632 548 622 512 622 C476 622 452 632 410 656 Z" fill="#EDE3D3"/>
    <path d="M512 572 C540 572 574 580 610 604 L616 656 C574 632 548 622 512 622 Z" fill="#CBBCA6" opacity="0.42"/>
    <path d="M480 613 L500 616 L506 672 L486 662 Z" fill="#EDE3D3"/>
    <path d="M544 613 L524 616 L518 672 L538 662 Z" fill="#D8CBB7"/>
  </g>

  <!-- ================= BOW TIE ================= -->
  <g id="bowtie">
    <path d="M506 640 L428 608 C417 603 408 611 408 625 L408 661 C408 675 417 683 428 678 L506 646 Z" fill="#1A1210"/>
    <path d="M518 640 L596 608 C607 603 616 611 616 625 L616 661 C616 675 607 683 596 678 L518 646 Z" fill="#1A1210"/>
    <path d="M506 640 L428 608 C417 603 408 611 408 625 L408 638 C444 628 476 632 506 642 Z" fill="#3A2C25" opacity="0.7"/>
    <path d="M518 640 L596 608 C607 603 616 611 616 625 L616 638 C580 628 548 632 518 642 Z" fill="#3A2C25" opacity="0.4"/>
    <path d="M492 618 C483 618 479 628 479 643 C479 658 483 668 492 668 L532 668 C541 668 545 658 545 643 C545 628 541 618 532 618 Z" fill="#241A16"/>
    <path d="M492 618 C483 618 479 628 479 643 L512 643 L512 618 Z" fill="#3A2C25" opacity="0.5"/>
  </g>

  <!-- ================= ARMS ================= -->
  <g id="arm_left">
    <path d="M256 684 C210 708 184 766 176 838 C166 912 168 992 178 1058 C184 1102 196 1140 212 1172 C236 1220 286 1258 344 1282 L396 1302 C410 1306 420 1300 424 1288 L448 1230 C452 1218 446 1206 434 1202 L382 1184 C332 1166 296 1134 282 1090 C266 1040 260 976 262 908 C264 826 274 744 290 694 Z" fill="#241A16"/>
    <path d="M256 684 C210 708 184 766 176 838 C166 912 168 992 178 1058 L212 1052 C204 990 202 912 210 842 C218 778 236 722 266 696 Z" fill="#5C4436" opacity="0.24"/>
    <path d="M290 694 C274 744 264 826 262 908 C260 976 266 1040 282 1090 C296 1134 332 1166 382 1184" fill="none" stroke="#120C0A" stroke-width="7" opacity="0.5"/>
    <path d="M372 1178 L442 1202 L420 1264 L350 1238 Z" fill="#120C0A" opacity="0.6"/>
    <path d="M368 1190 L438 1214" fill="none" stroke="#4A3A30" stroke-width="4" opacity="0.32"/>
  </g>
  <g id="arm_right">
    <path d="M768 684 C814 708 840 766 848 838 C858 912 856 992 846 1058 C840 1102 828 1140 812 1172 C788 1220 738 1258 680 1282 L628 1302 C614 1306 604 1300 600 1288 L576 1230 C572 1218 578 1206 590 1202 L642 1184 C692 1166 728 1134 742 1090 C758 1040 764 976 762 908 C760 826 750 744 734 694 Z" fill="#241A16"/>
    <path d="M768 684 C814 708 840 766 848 838 C858 912 856 992 846 1058 L812 1052 C820 990 822 912 814 842 C806 778 788 722 758 696 Z" fill="#120C0A" opacity="0.45"/>
    <path d="M734 694 C750 744 760 826 762 908 C764 976 758 1040 742 1090 C728 1134 692 1166 642 1184" fill="none" stroke="#120C0A" stroke-width="7" opacity="0.5"/>
    <path d="M652 1178 L582 1202 L604 1264 L674 1238 Z" fill="#120C0A" opacity="0.6"/>
    <path d="M656 1190 L586 1214" fill="none" stroke="#4A3A30" stroke-width="4" opacity="0.26"/>
  </g>

  <!-- ================= GLOVED HANDS ================= -->
  <g id="gloves">
    <path d="M398 1288 C392 1264 406 1244 430 1240 C462 1234 502 1240 530 1256 C552 1268 562 1288 558 1310 C554 1336 530 1350 500 1350 L440 1348 C412 1346 400 1314 398 1288 Z" fill="#DDD0BE"/>
    <path d="M424 1244 C444 1234 468 1236 482 1248 C492 1256 490 1268 478 1270 C462 1272 440 1264 428 1256 Z" fill="#D2C4B0"/>
    <path d="M432 1276 C464 1270 500 1276 524 1290" fill="none" stroke="#B7A68F" stroke-width="5" stroke-linecap="round"/>
    <path d="M424 1308 C458 1302 496 1308 522 1322" fill="none" stroke="#B7A68F" stroke-width="5" stroke-linecap="round"/>
    <path d="M626 1288 C632 1264 618 1244 594 1240 C562 1234 522 1240 494 1256 C472 1268 462 1288 466 1310 C470 1336 494 1350 524 1350 L584 1348 C612 1346 624 1314 626 1288 Z" fill="#EDE3D3"/>
    <path d="M600 1244 C580 1234 556 1236 542 1248 C532 1256 534 1268 546 1270 C562 1272 584 1264 596 1256 Z" fill="#DCCFBB"/>
    <path d="M592 1276 C560 1270 524 1276 500 1290" fill="none" stroke="#C6B6A0" stroke-width="5" stroke-linecap="round"/>
    <path d="M600 1308 C566 1302 528 1308 502 1322" fill="none" stroke="#C6B6A0" stroke-width="5" stroke-linecap="round"/>
    <path d="M626 1288 C632 1264 618 1244 594 1240 C580 1238 564 1238 550 1240 C578 1250 598 1268 606 1290 C612 1310 606 1332 590 1346 L584 1348 C612 1346 624 1314 626 1288 Z" fill="#C6B6A0" opacity="0.42"/>
  </g>

  <!-- ================= HEAD ================= -->
  <g id="head">
    <path d="M512 156 C600 156 656 220 660 316 C663 380 656 424 644 456 C634 484 604 508 570 518 C552 524 528 526 512 526 C496 526 472 524 454 518 C420 508 390 484 380 456 C368 424 361 380 364 316 C368 220 424 156 512 156 Z" fill="#C8996C"/>
    <g clip-path="url(#head_clip)">
      <path d="M606 110 C652 214 662 356 628 548 L760 548 L760 110 Z" fill="#8A5F38" opacity="0.17"/>
      <ellipse cx="512" cy="560" rx="150" ry="62" fill="#8A5F38" opacity="0.20"/>
      <path d="M396 330 C452 360 574 360 630 330 C626 372 568 392 512 392 C456 392 400 372 396 330 Z" fill="#A87B4A" opacity="0.07"/>
      <ellipse cx="448" cy="292" rx="76" ry="96" fill="#DDB68D" opacity="0.16"/>
      <ellipse cx="484" cy="282" rx="96" ry="42" fill="#DDB68D" opacity="0.11"/>
      <ellipse cx="430" cy="432" rx="58" ry="38" fill="#DDB68D" opacity="0.10"/>
      <path d="M366 292 C361 376 366 430 380 462 L330 462 L330 280 Z" fill="#E8C49C" opacity="0.20"/>
    </g>
  </g>

  <!-- ================= EARS ================= -->
  <g id="ears">
    <path d="M378 342 C342 330 322 352 326 390 C330 426 348 444 376 438 C368 408 366 372 378 342 Z" fill="#C08F62"/>
    <path d="M354 362 C340 372 340 400 354 414" fill="none" stroke="#8A5F38" stroke-width="7" stroke-linecap="round" opacity="0.5"/>
    <path d="M646 342 C682 330 702 352 698 390 C694 426 676 444 648 438 C656 408 658 372 646 342 Z" fill="#AE7E51"/>
    <path d="M670 362 C684 372 684 400 670 414" fill="none" stroke="#7A5330" stroke-width="7" stroke-linecap="round" opacity="0.5"/>
  </g>

  <!-- ================= HAIR ================= -->
  <g id="hair">
    <path d="M356 360 C332 214 406 108 512 108 C618 108 692 214 668 360 C666 328 662 300 656 286 C642 250 610 236 570 244 C532 252 488 266 448 258 C416 252 396 274 388 300 C382 322 364 340 356 360 Z" fill="#17100E"/>
    <path d="M356 360 C332 214 406 108 512 108 C512 108 436 146 408 210 C386 262 382 320 384 352 Z" fill="#3B241A" opacity="0.42"/>
    <path d="M430 186 C472 140 546 130 602 164 C626 178 642 198 652 222 C632 196 606 178 574 172 C524 162 470 170 430 186 Z" fill="#3B241A" opacity="0.4"/>
    <path d="M464 228 C518 204 580 216 622 250" fill="none" stroke="#3B241A" stroke-width="7" stroke-linecap="round" opacity="0.32"/>
    <path d="M368 336 L392 344 L387 390 C385 399 377 399 376 390 Z" fill="#17100E"/>
    <path d="M656 336 L632 344 L637 390 C639 399 647 399 648 390 Z" fill="#17100E"/>
    <path d="M368 336 L378 340 L374 392 C373 395 371 394 371 388 Z" fill="#3B241A" opacity="0.45"/>
  </g>

  <!-- ================= MUSTACHE =================
       Two horizontal blades split at the philtrum: level axis so it never
       reads as a mouth, thick at the inner end, sharp point outboard. -->
  <g id="mustache">
    <path d="M508 402 C478 401 444 404 430 408 C422 410 418 412 416 413 C418 416 422 418 430 421 C444 428 476 437 498 438 Z" fill="#17100E"/>
    <path d="M508 402 C478 401 444 404 430 408 C422 410 418 412 416 413 C420 414 428 415 440 416 C468 418 490 418 506 417 Z" fill="#3B241A" opacity="0.5"/>
    <path d="M432 422 C456 430 480 434 500 435" fill="none" stroke="#3B241A" stroke-width="3" stroke-linecap="round" opacity="0.35"/>
    <path d="M516 402 C546 401 580 404 594 408 C602 410 606 412 608 413 C606 416 602 418 594 421 C580 428 548 437 526 438 Z" fill="#17100E"/>
    <path d="M516 402 C546 401 580 404 594 408 C602 410 606 412 608 413 C604 414 596 415 584 416 C556 418 534 418 518 417 Z" fill="#3B241A" opacity="0.8"/>
    <path d="M592 422 C568 430 544 434 524 435" fill="none" stroke="#3B241A" stroke-width="3" stroke-linecap="round" opacity="0.5"/>
  </g>

  <!-- ================= MONOCLE =================
       The chain sits OUTSIDE the tilting group, so a tilt reads as the lens
       swinging on a fixed cord. -->
  <g id="monocle_chain">
    <path d="M630 400 C658 458 668 528 668 592 C668 656 658 720 648 782" fill="none" stroke="#A87B4A" stroke-width="6" stroke-linecap="round"/>
    <path d="M630 400 C658 458 668 528 668 592" fill="none" stroke="#D9A441" stroke-width="2.5" stroke-linecap="round" opacity="0.5"/>
    <circle cx="646" cy="790" r="10" fill="#A87B4A"/>
    <circle cx="646" cy="790" r="4" fill="#6E4E2C"/>
  </g>
  <g id="monocle" transform="rotate(-13 628 396)">
    <ellipse cx="588" cy="358" rx="35" ry="38" fill="#EFB42E" opacity="0.10"/>
    <path d="M561 335 C572 324 586 321 597 325 C580 333 567 347 563 364 C559 353 559 342 561 335 Z" fill="#EDE3D3" opacity="0.20"/>
    <path d="M570 383 C577 391 587 396 596 397 C585 400 574 396 568 391 Z" fill="#EDE3D3" opacity="0.12"/>
    <ellipse cx="588" cy="358" rx="35" ry="38" fill="none" stroke="#6E4E2C" stroke-width="3" opacity="0.5"/>
    <ellipse cx="588" cy="358" rx="40" ry="43" fill="none" stroke="#D9A441" stroke-width="10"/>
    <path d="M562 324 C571 318 580 314 589 313" fill="none" stroke="#F0CE7E" stroke-width="6" stroke-linecap="round" opacity="0.8"/>
    <path d="M546 346 C549 337 553 329 558 322" fill="none" stroke="#F0CE7E" stroke-width="4" stroke-linecap="round" opacity="0.55"/>
    <path d="M617 390 C614 399 608 406 601 411" fill="none" stroke="#6E4E2C" stroke-width="5" stroke-linecap="round" opacity="0.7"/>
    <circle cx="628" cy="396" r="9" fill="#A87B4A"/>
    <circle cx="628" cy="396" r="3.5" fill="#6E4E2C"/>
  </g>

  <!-- ================= EYEBROWS =================
       eyebrow_right is the monocle-side brow. Its transform (together with
       the monocle transform) is the ONLY difference in butler_raised.svg. -->
  <g id="eyebrow_left" transform="translate(0,0)">
    <path d="M494 283 C460 280 424 289 400 307 C393 312 394 322 402 321 C426 310 458 303 494 308 C501 308 501 283 494 283 Z" fill="#17100E"/>
  </g>
  <g id="eyebrow_right" transform="translate(0,-24) rotate(-5 545 302)">
    <path d="M530 283 C564 280 600 289 624 307 C631 312 630 322 622 321 C598 310 566 303 530 308 C523 308 523 283 530 283 Z" fill="#17100E"/>
  </g>
</svg>
