<svg xmlns="http://www.w3.org/2000/svg" width="400" height="560" viewBox="0 0 400 560">
  <rect x="3" y="3" width="394" height="554" rx="28" fill="#F7F4EC" stroke="#C8B392" stroke-width="2"/>
  <rect x="12" y="12" width="376" height="536" rx="19" fill="none" stroke="#E2D7C0" stroke-width="1.5"/>
  <g fill="#1C1C1C">
    <path transform="translate(128,168) scale(0.72) translate(-50,-50)" d="M 26 24 a 24 24 0 1 1 48 0 a 24 24 0 1 1 -48 0 Z M 1 60 a 24 24 0 1 1 48 0 a 24 24 0 1 1 -48 0 Z M 51 60 a 24 24 0 1 1 48 0 a 24 24 0 1 1 -48 0 Z M 57 44 C 58 64 61 86 68 100 L 32 100 C 39 86 42 64 43 44 Z"/>
    <path transform="translate(272,168) scale(0.72) translate(-50,-50)" d="M 26 24 a 24 24 0 1 1 48 0 a 24 24 0 1 1 -48 0 Z M 1 60 a 24 24 0 1 1 48 0 a 24 24 0 1 1 -48 0 Z M 51 60 a 24 24 0 1 1 48 0 a 24 24 0 1 1 -48 0 Z M 57 44 C 58 64 61 86 68 100 L 32 100 C 39 86 42 64 43 44 Z"/>
    <path transform="translate(200,280) scale(0.72) translate(-50,-50)" d="M 26 24 a 24 24 0 1 1 48 0 a 24 24 0 1 1 -48 0 Z M 1 60 a 24 24 0 1 1 48 0 a 24 24 0 1 1 -48 0 Z M 51 60 a 24 24 0 1 1 48 0 a 24 24 0 1 1 -48 0 Z M 57 44 C 58 64 61 86 68 100 L 32 100 C 39 86 42 64 43 44 Z"/>
    <path transform="translate(128,392) rotate(180) scale(0.72) translate(-50,-50)" d="M 26 24 a 24 24 0 1 1 48 0 a 24 24 0 1 1 -48 0 Z M 1 60 a 24 24 0 1 1 48 0 a 24 24 0 1 1 -48 0 Z M 51 60 a 24 24 0 1 1 48 0 a 24 24 0 1 1 -48 0 Z M 57 44 C 58 64 61 86 68 100 L 32 100 C 39 86 42 64 43 44 Z"/>
    <path transform="translate(272,392) rotate(180) scale(0.72) translate(-50,-50)" d="M 26 24 a 24 24 0 1 1 48 0 a 24 24 0 1 1 -48 0 Z M 1 60 a 24 24 0 1 1 48 0 a 24 24 0 1 1 -48 0 Z M 51 60 a 24 24 0 1 1 48 0 a 24 24 0 1 1 -48 0 Z M 57 44 C 58 64 61 86 68 100 L 32 100 C 39 86 42 64 43 44 Z"/>
    <g><path transform="translate(48,64) scale(0.7905) translate(-1381.5478,-117.0654)" d="m 1359.4238,82.910156 h 44.3848 v 12.890625 h -34.4238 V 109.7168 q 4.0039,-1.41602 7.666,-2.09961 3.6621,-0.73242 7.0312,-0.73242 10.8887,0 17.5293,5.5664 6.6895,5.56641 6.6895,14.64844 0,11.03516 -8.4961,17.57812 -8.4961,6.54297 -22.9981,6.54297 -9.8144,0 -15.9179,-3.71093 -6.1035,-3.75977 -6.1035,-9.52149 0,-3.95508 2.6855,-6.54297 2.6856,-2.63672 6.8359,-2.63672 1.3184,0 2.8321,0.29297 1.5136,0.29297 3.3691,0.87891 l 2.9785,14.01367 q 0.1465,0 0.4883,0.0488 1.416,0.14648 2.1484,0.14648 6.3965,0 10.4981,-3.95508 4.1016,-3.95507 4.1016,-10.15625 0,-6.00585 -4.7364,-9.71679 -4.7363,-3.75977 -12.5,-3.75977 -3.2226,0 -6.7383,0.63477 -3.5156,0.58594 -7.3242,1.75781 z"/><path transform="translate(48,120) scale(0.4) translate(-50,-50)" d="M 26 24 a 24 24 0 1 1 48 0 a 24 24 0 1 1 -48 0 Z M 1 60 a 24 24 0 1 1 48 0 a 24 24 0 1 1 -48 0 Z M 51 60 a 24 24 0 1 1 48 0 a 24 24 0 1 1 -48 0 Z M 57 44 C 58 64 61 86 68 100 L 32 100 C 39 86 42 64 43 44 Z"/></g>
    <g transform="rotate(180 200 280)"><g><path transform="translate(48,64) scale(0.7905) translate(-1381.5478,-117.0654)" d="m 1359.4238,82.910156 h 44.3848 v 12.890625 h -34.4238 V 109.7168 q 4.0039,-1.41602 7.666,-2.09961 3.6621,-0.73242 7.0312,-0.73242 10.8887,0 17.5293,5.5664 6.6895,5.56641 6.6895,14.64844 0,11.03516 -8.4961,17.57812 -8.4961,6.54297 -22.9981,6.54297 -9.8144,0 -15.9179,-3.71093 -6.1035,-3.75977 -6.1035,-9.52149 0,-3.95508 2.6855,-6.54297 2.6856,-2.63672 6.8359,-2.63672 1.3184,0 2.8321,0.29297 1.5136,0.29297 3.3691,0.87891 l 2.9785,14.01367 q 0.1465,0 0.4883,0.0488 1.416,0.14648 2.1484,0.14648 6.3965,0 10.4981,-3.95508 4.1016,-3.95507 4.1016,-10.15625 0,-6.00585 -4.7364,-9.71679 -4.7363,-3.75977 -12.5,-3.75977 -3.2226,0 -6.7383,0.63477 -3.5156,0.58594 -7.3242,1.75781 z"/><path transform="translate(48,120) scale(0.4) translate(-50,-50)" d="M 26 24 a 24 24 0 1 1 48 0 a 24 24 0 1 1 -48 0 Z M 1 60 a 24 24 0 1 1 48 0 a 24 24 0 1 1 -48 0 Z M 51 60 a 24 24 0 1 1 48 0 a 24 24 0 1 1 -48 0 Z M 57 44 C 58 64 61 86 68 100 L 32 100 C 39 86 42 64 43 44 Z"/></g></g>
  </g>
</svg>
